PathFileType	4	(X/Y/Z)	D:\Share\Shared_Data\Ergonomics\Sit To Stand Pertubation\S2\Perturbed.trc
DataRate	CameraRate	NumFrames	NumMarkers	Units	OrigDataRate	OrigDataStartFrame	OrigNumFrames	
100	100	11	18	m	100	11493	261
Frame#	Time	R_Toe			R_ASIS			R_Pelvis			V_Sacral			L_Pelvis			L_ASIS			Clavical			R_Acromium			L_Acromium			Sternum			Torso			R_Thigh_Med			R_Thigh_Lat			R_Thigh			R_Shank_Med			R_Shank_Lat			R_Shank			R_Heel			
		X1	Y1	Z1	X2	Y2	Z2	X3	Y3	Z3	X4	Y4	Z4	X5	Y5	Z5	X6	Y6	Z6	X7	Y7	Z7	X8	Y8	Z8	X9	Y9	Z9	X10	Y10	Z10	X11	Y11	Z11	X12	Y12	Z12	X13	Y13	Z13	X14	Y14	Z14	X15	Y15	Z15	X16	Y16	Z16	X17	Y17	Z17	X18	Y18	Z18	

11493	114.92	0.43382523	0.066745857	0.14368968	-0.078126045	0.63004956	0.11632388	-0.15402995	0.64267566	0.16220247	-0.29744559	0.58698688	0.013990457	-0.19858995	0.64166815	-0.1733015	-0.095397827	0.65062115	-0.14880206	0.092976639	0.96221051	-0.0044687228	0.019980425	1.0153403	0.20207404	0.0064449067	1.0292629	-0.18784541	0.065098778	0.8009093	-0.0057046685	0.0841632	0.92275623	-0.11759778	0.30270761	0.51047498	0.12522581	0.26929645	0.51614606	0.22744019	0.11404342	0.62391461	0.17377994	0.2970145	0.11171593	0.11114339	0.2760347	0.10078273	0.20295486	0.27801538	0.36403217	0.24091199	0.19652919	0.061584911	0.15064929
11494	114.93	0.43382434	0.066708305	0.14371645	-0.076754196	0.62941913	0.11652867	-0.15248006	0.6426853	0.16229729	-0.29656921	0.58834406	0.014200293	-0.19697498	0.6425929	-0.17297314	-0.093203476	0.65079559	-0.148642	0.10233139	0.95640125	-0.0045325785	0.031322826	1.0111679	0.20220869	0.017108116	1.0256591	-0.18765489	0.070681076	0.79588293	-0.0055639243	0.092263283	0.91735834	-0.11736811	0.30287219	0.5104183	0.12577704	0.26929852	0.51599487	0.22798938	0.11411784	0.62377295	0.17411157	0.29700577	0.1116778	0.1111433	0.27599454	0.10074549	0.20291368	0.27786444	0.36386978	0.2412576	0.19654095	0.061566383	0.15060072
11495	114.94	0.43381772	0.066676674	0.14375539	-0.075138382	0.62876379	0.11682027	-0.15066637	0.64273865	0.16250882	-0.2954371	0.58989685	0.014427282	-0.19505441	0.64360242	-0.17258842	-0.091007309	0.65081891	-0.14840068	0.11180077	0.95052905	-0.0046383724	0.042838928	1.0069224	0.20229387	0.027994453	1.0219534	-0.18753787	0.076556679	0.79092932	-0.0053963919	0.10053011	0.91192365	-0.11717039	0.30317554	0.51036508	0.1264561	0.26941156	0.51583179	0.22865796	0.11429576	0.62363068	0.17454022	0.29700009	0.11164484	0.11116416	0.27595093	0.10070541	0.20291031	0.27775986	0.36368176	0.2416797	0.19655087	0.061542076	0.15055635
11496	114.95	0.43380356	0.066654388	0.14380815	-0.073260544	0.62808301	0.11719192	-0.14857246	0.64283514	0.16282581	-0.2940181	0.5916532	0.014663618	-0.19280632	0.64469507	-0.17214955	-0.088719116	0.6507207	-0.14809033	0.12134988	0.94462897	-0.0047931075	0.054499786	1.0026519	0.20232607	0.039090515	1.0181838	-0.18749284	0.08273304	0.78608704	-0.0052113008	0.10896273	0.90650159	-0.11701254	0.30363586	0.51032056	0.12727872	0.26965079	0.51565643	0.22945801	0.11459156	0.623492	0.17508652	0.29699738	0.11161984	0.11120997	0.27590411	0.10066563	0.2029623	0.27771756	0.36346893	0.24218614	0.19655751	0.061511532	0.15051947
11497	114.96	0.43378006	0.066645828	0.14387607	-0.071105057	0.62737671	0.1176286	-0.1461851	0.64297406	0.16322124	-0.29228494	0.59361853	0.014899872	-0.19021268	0.64586932	-0.17165979	-0.086248528	0.65053522	-0.14772719	0.13094424	0.93873218	-0.0050011888	0.066283157	0.99840393	0.2023022	0.050388206	1.0143878	-0.18751585	0.089207916	0.78138141	-0.0050238943	0.11756379	0.90113879	-0.11690201	0.30426672	0.51028885	0.12825267	0.27003082	0.51546808	0.23039482	0.1150195	0.62336145	0.17576779	0.29699808	0.11160583	0.11128339	0.27585406	0.10062901	0.20308389	0.27775705	0.36323346	0.24278162	0.19655914	0.061473354	0.15049203
11498	114.97	0.43374567	0.066656471	0.14396069	-0.068660995	0.62664471	0.11811031	-0.14349565	0.64315509	0.16365689	-0.29021808	0.59579797	0.015127201	-0.18725954	0.64712531	-0.1711226	-0.083521233	0.65029218	-0.14732986	0.14055389	0.93286505	-0.0052633109	0.078173904	0.99422284	0.20221907	0.061885017	1.0106006	-0.18760141	0.095967026	0.77681909	-0.0048546085	0.12633927	0.89587555	-0.11684416	0.30507547	0.51027267	0.1293757	0.27056464	0.5152655	0.23146533	0.11559229	0.62324432	0.17659578	0.29700351	0.11160608	0.11138573	0.2757991	0.10059595	0.20328009	0.27789938	0.36297733	0.24346609	0.19655397	0.061424965	0.15047499
11499	114.98	0.43369916	0.066693123	0.14406392	-0.065923866	0.62588873	0.11861684	-0.14050125	0.64338	0.16409354	-0.28780658	0.5981969	0.015337571	-0.18393733	0.64846655	-0.1705425	-0.08048452	0.65001746	-0.14691595	0.15016118	0.92705139	-0.0055758939	0.090163445	0.990146	0.20207353	0.073581726	1.0068538	-0.18774413	0.10297709	0.77238177	-0.0047277594	0.13529907	0.89074341	-0.11684058	0.30606665	0.51027362	0.13063489	0.27126328	0.51504761	0.23265717	0.11631921	0.6231463	0.17757458	0.29701593	0.11162392	0.11151684	0.27573566	0.10056234	0.20354314	0.27816599	0.36270166	0.24423282	0.19653984	0.061362797	0.15046875
11500	114.99	0.43364069	0.066764259	0.14418785	-0.062896534	0.62512189	0.11913451	-0.13720525	0.64365869	0.16450555	-0.28504507	0.60082062	0.01552224	-0.18024077	0.64990338	-0.16992509	-0.077105698	0.64974121	-0.14649648	0.15977156	0.92131519	-0.0059309063	0.10224786	0.98619952	0.20186395	0.085478073	1.003174	-0.18793797	0.11018214	0.76802496	-0.0046679745	0.14445769	0.88576379	-0.1168876	0.30724353	0.51028998	0.13200635	0.2721355	0.51481299	0.2339478	0.11720621	0.62307477	0.17869925	0.29703885	0.11166248	0.11167489	0.27565906	0.10051846	0.20385303	0.27857745	0.36240576	0.24506673	0.19651453	0.061282692	0.15047311
11501	115	0.43357236	0.066879692	0.14433395	-0.059588703	0.6243764	0.11966061	-0.13361737	0.64401447	0.16488889	-0.28193188	0.60367395	0.015673451	-0.17616847	0.65145496	-0.16927708	-0.073368156	0.64950464	-0.1460721	0.16941611	0.91568213	-0.0063162823	0.1144245	0.98239655	0.20159117	0.097569221	0.99958008	-0.18817468	0.11752685	0.76369781	-0.0046914573	0.15383272	0.8809494	-0.11697564	0.30860693	0.51031375	0.13345378	0.2731882	0.51455975	0.23530482	0.11825796	0.6230423	0.17995332	0.29707553	0.1117237	0.11185593	0.2755661	0.10045068	0.20418259	0.27915262	0.36208737	0.24594466	0.19647624	0.061180698	0.15048703
11502	115.01	0.43349863	0.067049316	0.14450134	-0.056014542	0.62370325	0.12020296	-0.1297533	0.64448431	0.16525719	-0.27846744	0.60676306	0.015791129	-0.17172264	0.6531488	-0.16860573	-0.069268433	0.64935992	-0.14563379	0.17914078	0.91017767	-0.0067177262	0.12668766	0.97873779	0.20125967	0.10984277	0.99608472	-0.18844389	0.12500381	0.75938354	-0.0047975368	0.16343961	0.87630646	-0.1170899	0.31015366	0.51032977	0.13492949	0.27442667	0.51428601	0.23668803	0.11948032	0.62306812	0.18130678	0.29712781	0.11180676	0.11205339	0.27545807	0.10034707	0.20450687	0.27990897	0.36174271	0.24683682	0.19642418	0.061054089	0.15050836
11503	115.02	0.43342615	0.067280838	0.14468466	-0.05218932	0.62316541	0.12077662	-0.12563338	0.64511548	0.16563145	-0.27465442	0.61009741	0.015892275	-0.1669088	0.65501794	-0.16791859	-0.064814819	0.64936346	-0.14516602	0.18899077	0.90482361	-0.0071216536	0.13902385	0.9752171	0.20087694	0.12227585	0.9926936	-0.18873479	0.13266365	0.75511438	-0.0049716067	0.17328162	0.87183942	-0.11721211	0.311879	0.51031989	0.13638039	0.2758559	0.51399103	0.23805281	0.12088522	0.62317865	0.18271619	0.29719479	0.11190685	0.112258	0.27534143	0.10020046	0.20480347	0.28086209	0.3613678	0.24770932	0.19635968	0.060902126	0.15053351
